<svg id="Layer_1" data-name="Layer 1" xmlns="http://www.w3.org/2000/svg" xmlns:xlink="http://www.w3.org/1999/xlink" viewBox="0 0 264.46 107.04"><defs><style>.cls-1{fill:url(#linear-gradient);}.cls-2{fill:url(#linear-gradient-2);}.cls-3{fill:url(#linear-gradient-3);}.cls-4{fill:url(#linear-gradient-4);}.cls-5{fill:#dcdce4;}.cls-6{fill:#cdd1da;stroke:#cdd1da;stroke-miterlimit:3.24;stroke-width:0.25px;}</style><linearGradient id="linear-gradient" x1="84.81" y1="6.54" x2="126.9" y2="6.54" gradientUnits="userSpaceOnUse"><stop offset="0" stop-color="#f6d2bc"/><stop offset="1" stop-color="#b98671"/></linearGradient><linearGradient id="linear-gradient-2" x1="112.67" y1="6.55" x2="169.03" y2="6.55" gradientUnits="userSpaceOnUse"><stop offset="0" stop-color="#f6d2bc"/><stop offset="0.31" stop-color="#f9e3d5"/><stop offset="0.75" stop-color="#fdf7f3"/><stop offset="1" stop-color="#fff"/></linearGradient><linearGradient id="linear-gradient-3" x1="84.81" y1="32.58" x2="126.9" y2="32.58" gradientUnits="userSpaceOnUse"><stop offset="0" stop-color="#f6d2bc"/><stop offset="1" stop-color="#8c6448"/></linearGradient><linearGradient id="linear-gradient-4" x1="112.67" y1="32.6" x2="169.03" y2="32.6" gradientUnits="userSpaceOnUse"><stop offset="0" stop-color="#f6d2bc"/><stop offset="0.28" stop-color="#f6d4bf"/><stop offset="0.51" stop-color="#f8dbc9"/><stop offset="0.72" stop-color="#fae6da"/><stop offset="0.92" stop-color="#fdf6f2"/><stop offset="1" stop-color="#fff"/></linearGradient></defs><title>logo</title><polygon class="cls-1" points="126.9 0 98.71 0 84.81 13.08 112.67 13.08 126.9 0"/><polygon class="cls-2" points="154.96 0 126.9 0 112.67 13.09 169.03 13.09 154.96 0"/><polygon class="cls-3" points="112.67 13.07 84.81 13.07 126.12 52.1 126.9 52.1 112.67 13.07"/><polygon class="cls-4" points="169.03 13.07 112.67 13.07 126.9 52.14 127.46 52.14 169.03 13.07"/><path class="cls-5" d="M300,347.56h-3.21v-.16h.8c.3,0,.48-.2.39-.47l-1-3h-4l-.75,2.67a.59.59,0,0,0,.56.83h.39v.16h-2.51v-.16h.41a1,1,0,0,0,1-.84l2.59-9.17c.11-.4-.1-.61-.43-.61h-1.06v-.15h2.3L298.92,347a.7.7,0,0,0,.71.44h.4Zm-5.19-10.12-1.8,6.31h3.9Z" transform="translate(-290.68 -242.58)"/><path class="cls-5" d="M302.54,347.56v-.16h.6a.55.55,0,0,0,.58-.59v-9.43a.56.56,0,0,0-.58-.6h-.6v-.15h3.69v.15h-1.05a.56.56,0,0,0-.6.6v10h2.72a1.71,1.71,0,0,0,1.75-1.79v-2.84h.16v4.79Z" transform="translate(-290.68 -242.58)"/><path class="cls-5" d="M321.7,342.08c0,3.61-1.82,5.68-5,5.68s-5-2.07-5-5.66,1.82-5.68,5-5.68S321.7,338.49,321.7,342.08Zm-.91,0c0-3.38-1.57-5.5-4.08-5.5s-4.08,2.13-4.08,5.52,1.57,5.51,4.08,5.51S320.79,345.47,320.79,342.08Z" transform="translate(-290.68 -242.58)"/><path class="cls-5" d="M331.43,340.42h-.16v-2.21a1.4,1.4,0,0,0-1.43-1.43h-1.55v10a.56.56,0,0,0,.6.59h1.05v.16h-4.16v-.16h1.05a.56.56,0,0,0,.6-.59v-10h-1.59a1.39,1.39,0,0,0-1.39,1.46v2.18h-.16v-3.79h7.14Z" transform="translate(-290.68 -242.58)"/><path class="cls-5" d="M342.13,336.78a.55.55,0,0,0-.58.57v9.49a.55.55,0,0,0,.58.56h.59v.16h-3.21v-.16h.59a.55.55,0,0,0,.58-.56v-6.07h-4.62v6.07a.55.55,0,0,0,.58.56h.59v.16H334v-.16h.59a.55.55,0,0,0,.58-.56v-9.49a.55.55,0,0,0-.58-.57H334v-.15h3.21v.15h-.59a.55.55,0,0,0-.58.57v3.26h4.62v-3.26a.55.55,0,0,0-.58-.57h-.59v-.15h3.21v.15Z" transform="translate(-290.68 -242.58)"/><path class="cls-5" d="M356.17,336.78a.55.55,0,0,0-.58.58v9.43a.56.56,0,0,0,.58.61h.59v.16h-3.21v-.16h.59a.56.56,0,0,0,.58-.61v-9.35l-4,10.13-4.15-10.14v9.11a.78.78,0,0,0,.8.86h.37v.16h-2.51v-.16h.38a.78.78,0,0,0,.8-.86v-9.16a.56.56,0,0,0-.58-.6h-.6v-.15h1.93l4,9.56,3.76-9.56h1.88v.15Z" transform="translate(-290.68 -242.58)"/><path class="cls-5" d="M368.62,347.56h-3.21v-.16h.8c.3,0,.49-.2.39-.47l-1-3h-4l-.75,2.67a.6.6,0,0,0,.56.83h.4v.16h-2.51v-.16h.4a1,1,0,0,0,1-.84l2.59-9.17c.11-.4-.09-.61-.42-.61h-1.07v-.15h2.31L367.51,347a.7.7,0,0,0,.71.44h.4Zm-5.19-10.12-1.8,6.31h3.9Z" transform="translate(-290.68 -242.58)"/><path class="cls-5" d="M380.08,336.78h-.38a.78.78,0,0,0-.8.83v10.15l0-.08-6.38-10.36v9.25a.77.77,0,0,0,.8.83h.38v.16h-2.51v-.16h.37a.77.77,0,0,0,.8-.83v-9.25a.55.55,0,0,0-.58-.54h-.59v-.15h1.93l5.67,9.25v-8.27a.77.77,0,0,0-.8-.83h-.37v-.15h2.51Z" transform="translate(-290.68 -242.58)"/><path class="cls-5" d="M397.38,343.9h-.59a.56.56,0,0,0-.58.6v3.06h-.16c0-.55-.27-.71-.57-.71a1.53,1.53,0,0,0-.8.32,4.49,4.49,0,0,1-2.29.59c-2.88,0-4.94-2.33-4.94-5.66s2-5.68,5-5.68a4.1,4.1,0,0,1,2.92,1.12.58.58,0,0,0,.36.17.3.3,0,0,0,.3-.33v-.75h.16v3.79h-.16v-.23a3.31,3.31,0,0,0-3.5-3.61c-2.6,0-4.19,2.37-4.19,5.5s1.6,5.53,4.11,5.53a4.37,4.37,0,0,0,2.87-1.12v-2a.56.56,0,0,0-.59-.6H393.7v-.15h3.68Z" transform="translate(-290.68 -242.58)"/><path class="cls-5" d="M408.62,347.56H405.4v-.16h.8c.3,0,.49-.2.39-.47l-1-3h-4l-.75,2.67a.6.6,0,0,0,.56.83h.4v.16h-2.51v-.16h.4a1,1,0,0,0,1-.84l2.59-9.17c.11-.4-.09-.61-.42-.61h-1.07v-.15h2.31L407.5,347a.71.71,0,0,0,.71.44h.41Zm-5.2-10.12-1.8,6.31h3.91Z" transform="translate(-290.68 -242.58)"/><path class="cls-5" d="M411.13,347.56v-.16h.59a.55.55,0,0,0,.58-.59v-9.43a.56.56,0,0,0-.58-.6h-.59v-.15h3.68v.15h-1.05a.56.56,0,0,0-.59.6v10h2.71a1.72,1.72,0,0,0,1.76-1.79v-2.84h.15v4.79Z" transform="translate(-290.68 -242.58)"/><path class="cls-5" d="M420.31,347.56v-.16h.59a.55.55,0,0,0,.58-.59v-9.43a.56.56,0,0,0-.58-.6h-.59v-.15H424v.15h-1.05a.57.57,0,0,0-.6.6v10h2.72a1.72,1.72,0,0,0,1.76-1.79v-2.84H427v4.79Z" transform="translate(-290.68 -242.58)"/><path class="cls-5" d="M436.93,347.56h-7.45v-.16h.6a.55.55,0,0,0,.58-.56v-9.49a.55.55,0,0,0-.58-.57h-.6v-.15h6.91v3.79h-.16v-2.21a1.39,1.39,0,0,0-1.43-1.43h-3.28v3.83h3.77v.16h-3.77v6.63h3.53a1.71,1.71,0,0,0,1.73-1.79v-2.84h.15Z" transform="translate(-290.68 -242.58)"/><path class="cls-5" d="M447.34,347.56h-.6c-1.07,0-1.41-.8-1.41-2.15V343c0-1.33-.63-2.22-2.35-2.22h-1.5v6.05a.56.56,0,0,0,.59.58h.59v.16h-3.21v-.16H440a.56.56,0,0,0,.58-.58v-9.46a.56.56,0,0,0-.61-.58h-.56v-.15h3.63c2.37,0,3.27.62,3.27,2.07,0,1.28-.71,1.89-2.53,2,1.73.19,2.37,1,2.37,2.29v2.42c0,1.41.13,2,.74,2h.41Zm-4.26-6.95c1.73,0,2.36-.58,2.36-1.91s-.63-1.92-2.36-1.92h-1.6v3.83Z" transform="translate(-290.68 -242.58)"/><path class="cls-5" d="M457.28,336.78h-.2a1.18,1.18,0,0,0-1.19.83l-2.42,6.26v3a.54.54,0,0,0,.55.53h.63v.16h-3.22v-.16h.63a.54.54,0,0,0,.55-.53v-3l-3-6.54a.83.83,0,0,0-.81-.52h-.32v-.15h3.17v.15h-.81c-.3,0-.44.21-.29.54l2.84,6.21,2.29-5.92a.56.56,0,0,0-.5-.83h-.39v-.15h2.46Z" transform="translate(-290.68 -242.58)"/><path class="cls-6" d="M467.32,342.56h-1.6v5h-.19v-5h-1v-.19h1a1.5,1.5,0,0,1,1.89-1.67l0,.19a1.63,1.63,0,0,0-1.26.28,1.59,1.59,0,0,0-.42,1.2h1.6Z" transform="translate(-290.68 -242.58)"/><path class="cls-6" d="M469.19,346a2.87,2.87,0,0,1-.2-1.08,2.92,2.92,0,0,1,.2-1.09,2.62,2.62,0,0,1,4.79,0,3.13,3.13,0,0,1,.19,1.09A3.07,3.07,0,0,1,474,346a2.61,2.61,0,0,1-4.79,0Zm0-1.08a3,3,0,0,0,.18,1,2.41,2.41,0,0,0,4.43,0,2.58,2.58,0,0,0,.19-1,2.67,2.67,0,0,0-.19-1,2.41,2.41,0,0,0-4.43,0A3.11,3.11,0,0,0,469.18,344.94Z" transform="translate(-290.68 -242.58)"/><path class="cls-6" d="M476.82,347.58v-5.25H477v1.12a1.78,1.78,0,0,1,1.74-1.14,2.42,2.42,0,0,1,.85.15v.2a2.49,2.49,0,0,0-.85-.16,1.71,1.71,0,0,0-1.74,1.75v3.33Z" transform="translate(-290.68 -242.58)"/><path class="cls-6" d="M487.9,342.56h-1.59v5h-.2v-5h-1v-.19h1a1.51,1.51,0,0,1,1.9-1.67l0,.19a1.66,1.66,0,0,0-1.27.28,1.62,1.62,0,0,0-.41,1.2h1.59Z" transform="translate(-290.68 -242.58)"/><path class="cls-6" d="M490.48,341.19a.19.19,0,1,1-.38,0,.19.19,0,0,1,.38,0Zm-.09,6.37v-5.25h-.2v5.25Z" transform="translate(-290.68 -242.58)"/><path class="cls-6" d="M493.54,347.56v-5.23h.19v1.44a2,2,0,0,1,.42-.78,2.23,2.23,0,0,1,1.67-.67,2.19,2.19,0,0,1,2.29,2.42v2.82h-.2v-2.82a2,2,0,0,0-2.1-2.23,2.07,2.07,0,0,0-1.53.62,2.31,2.31,0,0,0-.53,1.56v2.87Z" transform="translate(-290.68 -242.58)"/><path class="cls-6" d="M501,345a2.66,2.66,0,0,0,.18,1,2.38,2.38,0,0,0,4.31.13h.21A2.56,2.56,0,0,1,501,346a3,3,0,0,1,0-2.16,2.4,2.4,0,0,1,2.37-1.56A2.49,2.49,0,0,1,505.9,345Zm4.73-.19a2.29,2.29,0,0,0-2.36-2.26,2.23,2.23,0,0,0-2.19,1.44,2.32,2.32,0,0,0-.18.82Z" transform="translate(-290.68 -242.58)"/><path class="cls-6" d="M511.4,349.28a1.37,1.37,0,0,0,1.19-.29,1.79,1.79,0,0,0,.34-1.26v-5.42h.19v5.42a2,2,0,0,1-.4,1.4,1.55,1.55,0,0,1-1.34.34ZM513,341a.2.2,0,0,0-.19.19A.2.2,0,1,0,513,341Z" transform="translate(-290.68 -242.58)"/><path class="cls-6" d="M515.94,345a2.66,2.66,0,0,0,.18,1,2.38,2.38,0,0,0,4.31.13h.21a2.56,2.56,0,0,1-4.7-.06,3,3,0,0,1,0-2.16,2.4,2.4,0,0,1,2.37-1.56,2.49,2.49,0,0,1,2.55,2.64Zm4.73-.19a2.29,2.29,0,0,0-2.36-2.26,2.23,2.23,0,0,0-2.19,1.44,2.32,2.32,0,0,0-.18.82Z" transform="translate(-290.68 -242.58)"/><path class="cls-6" d="M523.1,342.33l1.66,5,1.62-4.74h.14l1.62,4.74,1.66-5H530l-1.76,5.23H528l-1.17-3.43-.39-1.21-.39,1.21-1.17,3.43h-.24l-1.75-5.23Z" transform="translate(-290.68 -242.58)"/><path class="cls-6" d="M532.16,345a2.87,2.87,0,0,0,.18,1,2.39,2.39,0,0,0,4.32.13h.2a2.37,2.37,0,0,1-2.33,1.51,2.42,2.42,0,0,1-2.37-1.57,3.16,3.16,0,0,1,0-2.16,2.41,2.41,0,0,1,2.37-1.56,2.48,2.48,0,0,1,2.55,2.64Zm4.73-.19a2.29,2.29,0,0,0-2.36-2.26,2.23,2.23,0,0,0-2.19,1.44,2.87,2.87,0,0,0-.18.82Z" transform="translate(-290.68 -242.58)"/><path class="cls-6" d="M539.92,340.8v6.76h-.2V340.8Z" transform="translate(-290.68 -242.58)"/><path class="cls-6" d="M543.07,347.58v-5.25h.19v1.12a1.78,1.78,0,0,1,1.73-1.14,2.48,2.48,0,0,1,.86.15v.2a2.54,2.54,0,0,0-.86-.16,1.71,1.71,0,0,0-1.73,1.75v3.33Z" transform="translate(-290.68 -242.58)"/><path class="cls-6" d="M548.19,342.33l2.11,5,2.23-5h.21l-3.11,7.06h-.21l.78-1.8L548,342.33Z" transform="translate(-290.68 -242.58)"/><path class="cls-5" d="M300.88,325.18h-7.46a6.16,6.16,0,0,1-1.15-.09,1.88,1.88,0,0,1-.74-.29,1.09,1.09,0,0,1-.39-.53,2.3,2.3,0,0,1-.12-.79v-1.8h.75v1.43a1.9,1.9,0,0,0,.1.69.67.67,0,0,0,.34.4,1.81,1.81,0,0,0,.67.17,10.33,10.33,0,0,0,1.05,0h6.19v-3.79h.76Zm-6.23-6.09a.47.47,0,0,1,.16-.37.53.53,0,0,1,.74,0,.51.51,0,0,1,.16.37.54.54,0,0,1-.16.37.53.53,0,0,1-.74,0A.5.5,0,0,1,294.65,319.09Zm1.63,0a.47.47,0,0,1,.16-.37.51.51,0,0,1,.37-.15.5.5,0,0,1,.37.15.47.47,0,0,1,.16.37.53.53,0,0,1-.53.52.51.51,0,0,1-.37-.15A.5.5,0,0,1,296.28,319.09Z" transform="translate(-290.68 -242.58)"/><path class="cls-5" d="M303.52,316.61v8.57h-.76v-8.57Z" transform="translate(-290.68 -242.58)"/><path class="cls-5" d="M307.17,322.89a2.25,2.25,0,0,0,.23,1.12.9.9,0,0,0,.87.4.52.52,0,0,1,.31.08.35.35,0,0,1,.11.3.38.38,0,0,1-.11.32.53.53,0,0,1-.31.07,1.09,1.09,0,0,1-1.1-.54,8.48,8.48,0,0,1-.11,1.47,2.32,2.32,0,0,1-.38,1,1.51,1.51,0,0,1-.74.54,4.18,4.18,0,0,1-1.2.19V327a2.18,2.18,0,0,0,.91-.18,1.08,1.08,0,0,0,.52-.47,2.26,2.26,0,0,0,.22-.78c0-.32.05-.69.05-1.12v-3.23h.73Z" transform="translate(-290.68 -242.58)"/><path class="cls-5" d="M308.27,325.18a.48.48,0,0,1-.31-.08.34.34,0,0,1-.11-.29c0-.17,0-.28.11-.32a.54.54,0,0,1,.31-.08h1.78a.54.54,0,0,1,.31.08.35.35,0,0,1,.11.3.38.38,0,0,1-.11.32.55.55,0,0,1-.31.07Z" transform="translate(-290.68 -242.58)"/><path class="cls-5" d="M310.05,325.18a.51.51,0,0,1-.32-.08.34.34,0,0,1-.1-.29c0-.17,0-.28.1-.32a.58.58,0,0,1,.32-.08h1.65a2.33,2.33,0,0,1-.29-.68,2.89,2.89,0,0,1-.1-.76,2.6,2.6,0,0,1,.07-.61,3,3,0,0,1,.21-.59,2,2,0,0,1,.34-.49,1.39,1.39,0,0,1,.48-.32l-.44,0-.45,0v-.61a14.47,14.47,0,0,1,2.3.28,4.71,4.71,0,0,1,1.69.67,3,3,0,0,1,1,1.22,4.74,4.74,0,0,1,.35,1.94v.78Zm1.89-2.19a2.72,2.72,0,0,0,.05.49,1.28,1.28,0,0,0,.17.45,1,1,0,0,0,.32.34.93.93,0,0,0,.51.14h.13a.72.72,0,0,0,.47-.16,1.16,1.16,0,0,0,.3-.36,1.84,1.84,0,0,0,.15-.47,3.73,3.73,0,0,0,0-.46,2.81,2.81,0,0,0-.06-.59,1.49,1.49,0,0,0-.19-.5,1,1,0,0,0-.32-.34.85.85,0,0,0-.49-.13.89.89,0,0,0-.8.44A2.06,2.06,0,0,0,311.94,323Zm2.77-.08a3.65,3.65,0,0,1-.09.77,2.71,2.71,0,0,1-.27.73h1.77a4.79,4.79,0,0,0-.14-1.21,2.85,2.85,0,0,0-.39-.9,2.22,2.22,0,0,0-.63-.63,3.36,3.36,0,0,0-.83-.4,1.7,1.7,0,0,1,.46.76A3.45,3.45,0,0,1,314.71,322.91Z" transform="translate(-290.68 -242.58)"/><path class="cls-5" d="M322.79,325.18a3,3,0,0,1-.31,1.27,2,2,0,0,1-.7.81,2.94,2.94,0,0,1-1.1.42,8.09,8.09,0,0,1-1.47.12h-.27V327h.24a8.31,8.31,0,0,0,1.16-.07,2.88,2.88,0,0,0,.9-.27,1.36,1.36,0,0,0,.58-.56,1.88,1.88,0,0,0,.22-.95h-1.56a3.51,3.51,0,0,1-.89-.1,1.73,1.73,0,0,1-1.19-1,2.51,2.51,0,0,1-.17-1,3,3,0,0,1,.16-.94,2.63,2.63,0,0,1,.46-.82,2.38,2.38,0,0,1,.74-.59,2.21,2.21,0,0,1,1-.22,2.35,2.35,0,0,1,1,.22,1.89,1.89,0,0,1,.69.63,3.14,3.14,0,0,1,.38,1,6.43,6.43,0,0,1,.12,1.29v.72h.78a.58.58,0,0,1,.32.08.35.35,0,0,1,.1.3c0,.16,0,.27-.1.32a.58.58,0,0,1-.32.07ZM319,323a1.28,1.28,0,0,0,.41,1.05,1.82,1.82,0,0,0,1.18.33H322v-1a4.06,4.06,0,0,0-.09-.89,1.84,1.84,0,0,0-.26-.67,1.2,1.2,0,0,0-.48-.44,1.41,1.41,0,0,0-.71-.16,1.3,1.3,0,0,0-.67.16,1.64,1.64,0,0,0-.77,1A2,2,0,0,0,319,323Z" transform="translate(-290.68 -242.58)"/><path class="cls-5" d="M323.58,325.18a.48.48,0,0,1-.31-.08.34.34,0,0,1-.11-.29c0-.17,0-.28.11-.32a.54.54,0,0,1,.31-.08h1.78a.54.54,0,0,1,.31.08.35.35,0,0,1,.11.3.38.38,0,0,1-.11.32.55.55,0,0,1-.31.07Z" transform="translate(-290.68 -242.58)"/><path class="cls-5" d="M325.36,325.18a.46.46,0,0,1-.31-.08.32.32,0,0,1-.11-.29c0-.17,0-.28.11-.32a.52.52,0,0,1,.31-.08h5.09a4.3,4.3,0,0,0-.23-1.48,2.47,2.47,0,0,0-.6-1,2.22,2.22,0,0,0-.89-.55,3.55,3.55,0,0,0-1.09-.17,5.16,5.16,0,0,0-.67,0c-.24,0-.44.07-.63.11v-.72l.63-.15a4.09,4.09,0,0,1,.8-.08,3.62,3.62,0,0,1,1.58.32,3,3,0,0,1,1.09.86,3.54,3.54,0,0,1,.62,1.26,5.54,5.54,0,0,1,.2,1.53H332a.52.52,0,0,1,.31.08.35.35,0,0,1,.11.3.38.38,0,0,1-.11.32.55.55,0,0,1-.31.07Zm2.65,1.61a.49.49,0,0,1,.16-.37.47.47,0,0,1,.37-.16.49.49,0,0,1,.37.16.51.51,0,0,1,0,.74.49.49,0,0,1-.37.16.47.47,0,0,1-.37-.16A.49.49,0,0,1,328,326.79Z" transform="translate(-290.68 -242.58)"/><path class="cls-5" d="M332,325.18a.46.46,0,0,1-.31-.08.32.32,0,0,1-.11-.29c0-.17,0-.28.11-.32a.52.52,0,0,1,.31-.08h1.77a.58.58,0,0,1,.32.08.35.35,0,0,1,.1.3c0,.16,0,.27-.1.32a.58.58,0,0,1-.32.07Z" transform="translate(-290.68 -242.58)"/><path class="cls-5" d="M341.21,325.18a1.53,1.53,0,0,1-1.32-.73,1.75,1.75,0,0,1-.65.67,2.15,2.15,0,0,1-1,.23,4,4,0,0,1-1.13-.17,5.46,5.46,0,0,1-1.32-.67,1.32,1.32,0,0,1-.69.56,2.62,2.62,0,0,1-.8.11h-.48a.48.48,0,0,1-.31-.08.34.34,0,0,1-.11-.29c0-.17,0-.28.11-.32a.54.54,0,0,1,.31-.08h.46a1.42,1.42,0,0,0,.34,0,1.51,1.51,0,0,0,.36-.18,1.87,1.87,0,0,0,.35-.38,2.81,2.81,0,0,0,.32-.65,5.29,5.29,0,0,1,.57-1.19,3.17,3.17,0,0,1,.63-.74,1.84,1.84,0,0,1,.66-.37,2.09,2.09,0,0,1,.63-.11,1.94,1.94,0,0,1,.83.18,1.83,1.83,0,0,1,.65.49,2.46,2.46,0,0,1,.44.74,2.7,2.7,0,0,1,.16,1,3.83,3.83,0,0,1-.06.65,2,2,0,0,0,.44.44,1.09,1.09,0,0,0,.63.19h.19a.52.52,0,0,1,.31.08.35.35,0,0,1,.11.3.38.38,0,0,1-.11.32.53.53,0,0,1-.31.07Zm-1.79-2.09a2,2,0,0,0-.09-.59,1.7,1.7,0,0,0-.26-.5,1.47,1.47,0,0,0-.43-.35,1.42,1.42,0,0,0-.59-.13,1.24,1.24,0,0,0-.53.12,1.59,1.59,0,0,0-.5.39,4,4,0,0,0-.47.71,7.57,7.57,0,0,0-.44,1.07,4.75,4.75,0,0,0,1,.55,2.74,2.74,0,0,0,1,.2,1.33,1.33,0,0,0,1-.34A1.53,1.53,0,0,0,339.42,323.09Z" transform="translate(-290.68 -242.58)"/><path class="cls-5" d="M341.39,325.18a.46.46,0,0,1-.31-.08.34.34,0,0,1-.11-.29c0-.17,0-.28.11-.32a.52.52,0,0,1,.31-.08h1.78a.54.54,0,0,1,.31.08.35.35,0,0,1,.11.3.38.38,0,0,1-.11.32.55.55,0,0,1-.31.07Z" transform="translate(-290.68 -242.58)"/><path class="cls-5" d="M343.17,325.18a.51.51,0,0,1-.32-.08.34.34,0,0,1-.1-.29c0-.17,0-.28.1-.32a.58.58,0,0,1,.32-.08h1.27a1.29,1.29,0,0,0,.42-.11.73.73,0,0,0,.29-.29,1.22,1.22,0,0,0,.1-.56v-6.83H346v6.28a2.36,2.36,0,0,0,.23,1.12.9.9,0,0,0,.87.4.58.58,0,0,1,.32.08.35.35,0,0,1,.1.3c0,.16,0,.27-.1.32a.58.58,0,0,1-.32.07,1.87,1.87,0,0,1-.76-.15,1,1,0,0,1-.52-.56,1.61,1.61,0,0,1-.31.36,1.28,1.28,0,0,1-.38.21,1.7,1.7,0,0,1-.47.11,5.47,5.47,0,0,1-.6,0Z" transform="translate(-290.68 -242.58)"/><path class="cls-5" d="M347.1,325.18a.48.48,0,0,1-.31-.08.34.34,0,0,1-.11-.29c0-.17,0-.28.11-.32a.54.54,0,0,1,.31-.08h1.78a.54.54,0,0,1,.31.08.35.35,0,0,1,.11.3.38.38,0,0,1-.11.32.55.55,0,0,1-.31.07Z" transform="translate(-290.68 -242.58)"/><path class="cls-5" d="M348.88,325.18a.46.46,0,0,1-.31-.08.32.32,0,0,1-.11-.29c0-.17,0-.28.11-.32a.52.52,0,0,1,.31-.08h2.06v-7.8h.76v8.57Z" transform="translate(-290.68 -242.58)"/><path class="cls-5" d="M374.26,323.44a.9.9,0,0,1-.06.34,17.71,17.71,0,0,1-2.89,4.37q-2.65,3-5.26,3A5.48,5.48,0,0,1,363.2,330a16.78,16.78,0,0,1-2.57-2.19c-.76-.76-1.1-1.18-1-1.24s.72.43,2.22,1.24a9.54,9.54,0,0,0,4.3,1.34,6.12,6.12,0,0,0,4-1.5c1-.83,1.47-1.51,1.47-2.06a8.27,8.27,0,0,0-1.15-2.55,31.12,31.12,0,0,1-1.53-3,1.32,1.32,0,0,1-.1-.46c0-.83,1.07-2,3.19-3.53,0,0,0,.2-.11.53a4,4,0,0,0-.17.7,2.3,2.3,0,0,0,.22,1l1.65,3.3A5.55,5.55,0,0,1,374.26,323.44Zm-6.61.93a1.46,1.46,0,0,1-.45,1.09,1.57,1.57,0,0,1-1.11.44,1.54,1.54,0,0,1-1.55-1.53,1.54,1.54,0,0,1,.45-1.11,1.55,1.55,0,0,1,2.21,0A1.55,1.55,0,0,1,367.65,324.37Z" transform="translate(-290.68 -242.58)"/><path class="cls-5" d="M382.43,325.18h-6.61a3.49,3.49,0,0,0,1.5-2.65V309.78a3.59,3.59,0,0,0-1-1.86l3.56-3.57.26.49a5.77,5.77,0,0,0-.62,3V320a5.78,5.78,0,0,1-.48,2.59,6.33,6.33,0,0,1-.59.75h4Z" transform="translate(-290.68 -242.58)"/><path class="cls-5" d="M385.65,325.18h-3.72v-1.8h3.72Z" transform="translate(-290.68 -242.58)"/><path class="cls-5" d="M388.93,325.18h-3.72v-1.8h3.72Z" transform="translate(-290.68 -242.58)"/><path class="cls-5" d="M400.68,325.18h-.95a2.34,2.34,0,0,1-2.13,1.22,7.79,7.79,0,0,1-3.26-.85c-.26-.13-1.1-.6-2.52-1.42-.13.7-.47,1.05-1,1.05h-2.47v-1.8h3a8.53,8.53,0,0,1-.83-1,2.19,2.19,0,0,1-.35-1.23q0-1.37,2.86-3.86a25.3,25.3,0,0,1,4.11-3,3.91,3.91,0,0,0-.17,2c.71,1.86,1.74,4.23,3.08,7.09h.69Zm-4.22-1.69c-.57-1.14-1.31-2.67-2.2-4.58-.78.37-1.17.83-1.17,1.37a2.91,2.91,0,0,0,1.34,2.22A3.78,3.78,0,0,0,396.46,323.49Z" transform="translate(-290.68 -242.58)"/><path class="cls-5" d="M403.9,325.18h-3.72v-1.8h3.72Z" transform="translate(-290.68 -242.58)"/><path class="cls-5" d="M407.17,325.18h-3.72v-1.8h3.72Z" transform="translate(-290.68 -242.58)"/><path class="cls-5" d="M413.4,309.78l-1.25,1.93L410,310l-1.15,1.72-2.44-1.9,1.26-1.92,2.23,1.6,1.11-1.66Zm1.31,15.4h-8.14v-1.8h2.31a7.7,7.7,0,0,0-1-2.58,7.67,7.67,0,0,1-1-2.64c0-.53.48-1.19,1.43-2a14.35,14.35,0,0,1,2.4-1.53,4.13,4.13,0,0,0-.59,1.92,1.46,1.46,0,0,0,.09.52q.91,2.2,2.94,6.28h1.55Zm-3.9-18.66-1.18,1.82-2.34-1.76,1.21-1.9Z" transform="translate(-290.68 -242.58)"/><path class="cls-5" d="M418.09,325.18h-3.72v-1.8h3.72Z" transform="translate(-290.68 -242.58)"/><path class="cls-5" d="M421.37,325.18h-3.72v-1.8h3.72Z" transform="translate(-290.68 -242.58)"/><path class="cls-5" d="M433.83,325.18h-5.89l-.94-1-.88,1h-5.36v-1.8h4.77c-.39-.34-1.71-1.74-4-4.18l2.49-2.06c.61-.5,1.56-1.35,2.85-2.56.76.73,1.71,1.58,2.84,2.56.5.43,1.33,1.12,2.49,2.06q-1.68,1.8-4,4.18h5.58Zm-5.65-4.52c-.41-.71-.84-1.07-1.27-1.07s-.84.42-1.28,1.25l1.28,1.44Z" transform="translate(-290.68 -242.58)"/><path class="cls-5" d="M437.16,325.18h-3.72v-1.8h3.72Z" transform="translate(-290.68 -242.58)"/><path class="cls-5" d="M440.43,325.18h-3.72v-1.8h3.72Z" transform="translate(-290.68 -242.58)"/><path class="cls-5" d="M444.36,325.18h-4.57v-1.8h2.09v-13.2a1.58,1.58,0,0,0-.46-1.09c-.08-.09-.38-.36-.91-.81l3.85-3.6Z" transform="translate(-290.68 -242.58)"/><path class="cls-5" d="M455.08,325.28c0,.27-.42.64-1.26,1.08a6.19,6.19,0,0,1-2.89.75,3.27,3.27,0,0,1-2.84-1.38,5.44,5.44,0,0,1-.85-3.17V307.92a6.2,6.2,0,0,0-.22-2,2.74,2.74,0,0,0-1.46-1.44l4.2-3.49v21.53a7.19,7.19,0,0,0,.23,2.19,2.06,2.06,0,0,0,2.18,1.34,4.73,4.73,0,0,0,1.73-.44c.71-.29,1.08-.44,1.11-.44S455.08,325.25,455.08,325.28Z" transform="translate(-290.68 -242.58)"/><path class="cls-5" d="M488.62,322.84c0,.21-.49.83-1.47,1.85a24,24,0,0,1-3,2.65q-5.46,4-7.76,4a25.71,25.71,0,0,1-7-.8q-4-1.17-4-3.78a37.66,37.66,0,0,1,4.55,1.47q5,1.74,6.67,1.74a9.5,9.5,0,0,0,5.75-2.43c1.91-1.51,2.8-2.69,2.65-3.53-.09-.48-.68-1.2-1.79-2.17a5.09,5.09,0,0,1-1.84-2.43q-.21-1.11,2.57-3.83l3.21-3.08a4.69,4.69,0,0,1-.25,2,3,3,0,0,1-1.49,1.26,4.56,4.56,0,0,0-1.72,1.31q-.06.56.78,1.41c.63.62,1.64,1.53,3.05,2.71A2.34,2.34,0,0,1,488.62,322.84ZM486,331.7l-.94,1.37-1.74-1.25-.94,1.31-1.87-1.37.95-1.48,1.7,1.3.94-1.34Z" transform="translate(-290.68 -242.58)"/><path class="cls-5" d="M498.36,325.18h-1.7a16.76,16.76,0,0,1-4,3.66L487,332.92a1.33,1.33,0,0,1,.46-.87l3.72-2.84c1.86-1.45,2.78-2.59,2.78-3.41q0-.75-2.94-5.85a1.19,1.19,0,0,1-.16-.55c0-.39.32-.85,1-1.39.38-.3,1.2-.88,2.46-1.72-.25.89-.37,1.32-.37,1.28a2.15,2.15,0,0,0,.21.75,33.36,33.36,0,0,0,3.06,5.06h1.21Z" transform="translate(-290.68 -242.58)"/><path class="cls-5" d="M501.56,325.18h-3.72v-1.8h3.72Z" transform="translate(-290.68 -242.58)"/><path class="cls-5" d="M504.83,325.18h-3.72v-1.8h3.72Z" transform="translate(-290.68 -242.58)"/><path class="cls-5" d="M512,325.18h-7.81v-1.8h2.32a9.19,9.19,0,0,0-1-2.56,9.88,9.88,0,0,1-1-2.53q0-1.21,3.8-3.68a4.7,4.7,0,0,0-.53,1.9,1.65,1.65,0,0,0,.1.59c.61,1.47,1.58,3.56,2.94,6.28H512Zm-.53,3.9-1.13,1.69-2.27-1.56L507,330.8l-2.25-1.66,1.14-1.77,2.23,1.68,1.1-1.68Z" transform="translate(-290.68 -242.58)"/><path class="cls-5" d="M515.43,325.18h-3.72v-1.8h3.72Z" transform="translate(-290.68 -242.58)"/><path class="cls-5" d="M518.7,325.18H515v-1.8h3.72Z" transform="translate(-290.68 -242.58)"/><path class="cls-5" d="M522.63,325.18h-4.57v-1.8h2.1v-13.2a1.6,1.6,0,0,0-.47-1.09,11.68,11.68,0,0,0-.91-.81l3.85-3.6Z" transform="translate(-290.68 -242.58)"/><path class="cls-5" d="M530.88,325.18h-6.61a3.49,3.49,0,0,0,1.5-2.65V309.78a3.59,3.59,0,0,0-1-1.86l3.56-3.57.26.49a5.77,5.77,0,0,0-.62,3V320a5.78,5.78,0,0,1-.48,2.59,7.91,7.91,0,0,1-.59.75h4Z" transform="translate(-290.68 -242.58)"/><path class="cls-5" d="M534.1,325.18h-3.72v-1.8h3.72Z" transform="translate(-290.68 -242.58)"/><path class="cls-5" d="M537.38,325.18h-3.72v-1.8h3.72Z" transform="translate(-290.68 -242.58)"/><path class="cls-5" d="M555.15,323.52c-.73,1.11-1.35,1.66-1.87,1.66H536.77v-1.8h9.34a18.23,18.23,0,0,1-5.29-3.43c-2.46-2.06-3.72-3.67-3.76-4.84.5-.54,1.31-1.38,2.42-2.51a20,20,0,0,0,3.71,5.41,15.54,15.54,0,0,0,5.25,3.9A17.53,17.53,0,0,0,555.15,323.52Zm-8.77,5.22-1.71,1.71L543,328.74l1.72-1.79Z" transform="translate(-290.68 -242.58)"/>
</svg>